<?xml version="1.0" standalone="no"?><!DOCTYPE svg PUBLIC "-//W3C//DTD SVG 1.1//EN" "http://www.w3.org/Graphics/SVG/1.1/DTD/svg11.dtd"><svg t="1589074917620" class="icon" viewBox="0 0 1024 1024" version="1.1" xmlns="http://www.w3.org/2000/svg" p-id="2215" width="16" height="16" xmlns:xlink="http://www.w3.org/1999/xlink"><defs><style type="text/css"></style></defs><path d="M646.972622 594.641829c0-4.62433-0.054191-9.248659 0.018064-13.872989 0.054191-3.179227 0.397403-6.358453 1.71606-9.320915 1.535422-3.450183 4.136607-4.082416 6.77392-1.33672 4.515947 4.678521 8.706746 9.68219 12.06661 15.245837 1.481231 2.456675 2.836015 5.021733 4.281118 7.514536 2.113463 3.630821 3.558566 7.514536 4.515947 11.651143 1.625741 7.026813 4.082416 13.836861 5.509455 20.93593 1.878634 9.411233 2.113463 18.93085 2.113463 28.468529 0 4.425628-2.023144 8.002258-5.093988 11.127294-3.775332 3.829523-8.237087 4.425628-13.186565 3.215354-2.113463-0.505786-3.468247-1.987017-4.570138-3.739204-0.921253-1.463167-1.752187-2.980525-2.727632-4.425628-3.287609-4.877223-7.713237-7.370025-13.764606-7.640982-10.278295-0.451595-20.466272-0.343212-30.70844 0.794806-11.036974 1.228338-21.405588 4.732712-31.828394 8.164832-4.931414 1.625741-9.844764 3.287609-14.613604 5.401073-4.76884 2.095399-9.501552 4.154671-13.854925 7.081005-2.745696 1.842506-5.81654 3.179227-8.760937 4.732712-1.282529 0.66836-2.691504 1.156082-3.829523 2.023144-7.207451 5.491391-15.336156 9.140277-23.771945 12.193057-7.099069 2.565058-13.565905 6.412645-20.213378 9.917019-4.335309 2.294101-8.48998 4.895286-12.698843 7.370026-4.136607 2.420548-8.526108 4.804968-13.367203 5.924922-0.975445 0.216765-2.00508 0.469658-2.872142 0.957381-7.315834 4.24499-15.480666 6.213943-23.464861 8.670618-4.226926 1.300593-8.48998 0.848998-12.319503-0.722551-5.202371-2.131527-7.370025-6.828112-7.351961-12.247249 0-5.328817 0.469658-10.675699 0.794806-16.004515 0.234829-4.046288 0.541914-8.074513 0.830935-12.102738 0.072255-1.011572-0.018064-2.077336 0.270956-3.016653 3.179227-10.314423 2.709568-21.188823 5.00367-31.629692 1.842506-8.363534 2.023144-16.907705 3.395992-25.325431 0.81287-4.985605-1.770251-7.261643-6.900367-6.647473-1.697996 0.198702-3.450183 0.578041-5.021733 1.246401-5.726221 2.402484-10.72989 0.722552-15.49873-2.492803-2.438611-1.643805-4.24499-3.937906-6.069433-6.141688-1.968953-2.38442-1.499294-4.732712 1.33672-6.593282 3.72114-2.456675 7.532599-4.841095 11.416314-6.990686 6.810048-3.739204 14.143946-6.539091 20.845611-10.422806 4.10048-2.366356 8.255151-4.786904 12.427886-6.91843 4.588202-2.330229 8.851256-5.328817 13.800734-7.026814 3.377928-1.156082 6.087496-3.703076 9.320915-5.364945 9.609935-4.967542 18.822467-10.72989 28.522721-15.480666 5.744285-2.799887 11.145357-5.96105 16.275472-9.700254 1.607677-1.174146 3.540502-1.264465 5.401073-1.300593 2.492803-0.054191 4.534011-0.903189 5.924922-2.980525 1.463167-2.203782 3.594694-3.341801 6.033305-3.901778 5.166243-1.174146 8.86932-4.714649 12.771098-7.839684 2.221846-1.788315 2.944397-4.714649 2.546994-7.532599-0.740615-5.328817-0.596105-10.675699-0.650296-16.004516-0.072255-7.568727-4.136607-13.331075-8.164832-19.147615-1.174146-1.697996-3.034716-2.691504-4.967542-3.359865-3.829523-1.318657-7.67711-2.565058-11.524696-3.775331-1.896698-0.596105-3.72114-0.14451-5.473328 0.66836-2.817951 1.300593-5.14818 3.251482-6.900367 5.780412-4.353373 6.268134-9.555744 11.506633-16.438047 15.065199-2.926334 1.499294-5.473328 3.757268-8.182896 5.672029-2.023144 1.427039-4.136607 2.709568-6.575218 3.233418-2.583122 0.559977-3.974033-0.903189-3.179227-3.468247 0.722552-2.330229 1.824443-4.552075 2.76376-6.828112 4.91335-11.759526 8.128704-24.079029 11.325994-36.362404 2.203782-8.48998 1.19221-17.250917 1.57155-25.903472 0.036128-0.975445-0.252893-2.023144-0.632233-2.944397-1.463167-3.630821-5.726221-4.895286-8.471916-2.167655-2.565058 2.546994-5.58171 3.522439-8.86932 4.028225-3.341801 0.52385-6.412645 1.553486-9.338978 3.233418-3.233418 1.86057-6.882303 2.781823-10.224104 4.606266-3.95597 2.167655-7.388089 5.003669-11.217612 7.261642-3.57663 2.113463-4.750776 5.202371-4.534011 9.122213 0.270957 4.804968 1.463167 9.501552 2.944397 13.963308 2.510866 7.586791 1.71606 15.173582 1.065764 22.742309-0.650296 7.586791-1.661868 15.191645-5.29269 22.182331-3.468247 6.665538-7.370025 9.302851-14.794242 8.941575-4.642393-0.234829-9.122213-1.264465-13.63816-2.312165-11.849845-2.745696-23.248095-6.900367-34.772791-10.639571-2.185718-0.704488-4.461756-1.264465-6.737793-1.589613-4.877223-0.722552-9.609935-1.697996-14.270392-3.43212-7.189388-2.673441-12.500141-0.343212-16.419983 6.358454-3.522439 5.997178-6.195879 12.373695-8.941575 18.732147-2.149591 4.985605-2.619249 10.404742-3.28761 15.625177-1.408975 10.8744-2.619249 21.784928-3.106971 32.767711-1.318657 29.732995-1.535422 59.484053-1.752188 89.217048-0.325148 43.06407 0.740615 86.110076 0.343212 129.174146-0.036128 4.588202-0.776743 8.86932-2.655376 13.023991-1.372848 3.016653-2.438611 6.177815-3.739205 9.230595-2.691504 6.268134-6.900367 7.604855-12.861416 4.154671-10.784081-6.232007-16.16709-15.932261-16.961897-28.034998-0.52385-7.911939-0.505786-15.896133 0.541914-23.808072 1.19221-9.068021 0.776743-18.17217 0.794806-27.27632 0.018064-13.313012 1.011572-26.535704 2.510867-39.758397 1.101891-9.609935 1.968953-19.237934 2.041208-28.938188 0.018064-2.023144 0.14451-4.046288 0.451594-6.051369 1.607677-10.495061 1.499294-21.026249 0.740616-31.557437-0.307084-4.353373 0.108383-8.670618 0.252893-12.987863 0.52385-16.907705 0.559977-33.815411 0.433531-50.723116-0.162574-21.821056 0.198702-43.642111 0.415467-65.445103 0.14451-15.029071 0.361276-30.058143-0.632233-45.069151-0.361276-5.473328-0.072255-10.982783-0.072255-16.45611 0.018064-8.977703-1.300593-17.847022-2.23991-26.75247-0.903189-8.616427-1.156082-17.287045-1.625741-25.939599-0.126447-2.366356 0.451595-4.606266 1.987017-6.502964 2.221846-2.76376 6.177815-2.691504 8.074513 0.289021 4.028225 6.304262 8.417725 12.355631 11.127294 19.472763 1.625741 4.263054 4.552075 7.984194 6.683601 12.084674 1.427039 2.745696 2.601185 5.455264 2.90827 8.526108 0.343212 3.468247 1.156082 6.828112 2.330228 10.115721 0.975445 2.727632 1.445103 5.563647 1.878634 8.435789 0.885126 5.870731 3.05278 11.416314 4.714649 17.088343 0.794807 2.673441 2.890206 3.937906 5.4372 4.407564 4.425628 0.81287 8.779001 1.625741 12.608524 4.263054 0.885126 0.614169 2.185718 0.794807 3.323737 0.885126 3.540502 0.270957 6.810048 1.264465 9.808637 3.106971 0.361276 0.234829 0.776743 0.505786 1.174146 0.541914 7.29777 0.559977 13.620096 4.570138 20.701101 5.888795 2.00508 0.37934 3.883714 0.993508 5.744284 1.878634 3.395992 1.625741 6.810048 3.215354 10.58538 3.703076 8.923511 1.138019 15.751623-6.322326 13.909116-15.11939-0.361276-1.752187-1.0477-3.377928-2.276037-4.606266-4.028225-4.046288-6.719729-9.01383-9.862828-13.674287-4.24499-6.322326-8.652554-12.572396-12.265312-19.310189-5.112052-9.519616-11.416314-18.425064-15.516794-28.432402-2.059272-5.021733-4.353373-9.989275-5.96105-15.263901-1.643805-5.346881-3.341801-10.72989-5.130115-16.058707-0.415467-1.228338-1.011572-2.438611-1.156083-3.703077-0.921253-7.875811-2.836015-15.625176-2.763759-23.627434 0.126447-12.427886 0.14451-24.855772 0.252893-37.283658 0.036128-4.534011-1.517358-6.412645-6.069433-6.611346-12.301439-0.505786-24.548688 0.198702-36.759808 1.62574-1.408975 0.162574-2.90827 0.487722-4.172735 1.119955-4.136607 2.059272-8.580299 2.456675-13.042055 2.817951-3.793395 0.307084-8.580299-3.034716-9.754445-6.62941-0.686424-2.095399-0.14451-3.992097 2.167654-5.617838 4.588202-3.251482 9.248659-6.430708 14.0175-9.411233 6.972622-4.353373 14.035563-8.526108 20.93593-12.987864 5.184307-3.359865 10.58538-6.502964 16.185154-9.140276 5.383009-2.52893 10.06153-6.213943 15.444538-8.652555 5.364945-2.420548 10.693762-5.039797 15.878069-7.731301 5.726221-2.962461 12.012419-3.883714 17.774768-6.593282 6.069433-2.854078 12.753034-1.86057 19.21987-1.318657 1.643805 0.14451 2.709568 1.553486 3.775331 2.727632 6.412645 7.044877 13.150437 13.78267 20.014677 20.394016 3.125035 3.016653 3.269546 5.310754 0.325148 8.526108-8.887384 9.68219-17.684448 19.472763-24.94609 30.437483-5.021733 7.568727-10.368614 15.011008-14.180074 23.248094-2.456675 5.29269-5.852667 10.35055-6.412644 16.419984-0.018064 0.289021-0.108383 0.578041-0.252893 0.830934-4.606266 8.580299-3.72114 17.937341-3.81146 27.149873-0.018064 1.896698 0.14451 3.793395 0.867062 5.527519 3.19729 7.568727 6.087496 15.300028 11.434378 21.730736 4.335309 5.220435 8.959639 10.151849 14.342647 14.324584 3.522439 2.727632 6.791984 5.780412 10.946656 7.713238 5.4372 2.510866 10.296359 2.276037 14.812306-1.914762 6.123624-5.690093 12.662715-10.946655 18.045724-17.431555 3.414056-4.118544 8.327406-6.810048 11.344058-11.271804 4.804968-7.099069 11.25374-12.753034 16.54643-19.418572 4.76884-6.015241 9.086085-12.301439 13.150437-18.768275 4.534011-7.225515 9.266723-14.30652 14.378775-21.116568 4.859159-6.4849 9.176404-13.313012 13.385267-20.231442 1.445103-2.366356 3.125035-4.497883 4.76884-6.683602 4.190799-5.527519 7.099069-11.795653 10.458933-17.810894 5.834603-10.458933 10.8744-21.333333 16.492238-31.882586 1.968953-3.685013 3.72114-7.496472 5.310754-11.362122 2.52893-6.141688 5.202371-12.193057 8.110641-18.172171 2.420548-5.021733 2.673441-10.422806 0.523849-15.570985-2.330229-5.58171-2.890206-11.452441-3.811459-17.287045-0.361276-2.276037 0.343212-4.335309 2.005081-5.924922 2.059272-1.987017 3.359865-4.263054 3.648885-7.15326 0.108383-1.083827 0.307084-2.366356 1.697996-2.763759 1.589613-0.451595 2.348292 0.578041 3.088908 1.734123 0.307084 0.469658 0.776743 0.993508 1.264465 1.138019 4.786904 1.427039 8.48998 4.823031 12.933672 6.900367 6.033305 2.836015 11.091166 7.29777 15.354219 12.427886 2.077336 2.492803 2.799887 5.744285 2.492803 8.995766-0.451595 4.91335-0.307084 9.808637-0.270957 14.721987 0.036128 4.714649-0.903189 9.15834-3.287609 13.294948-2.221846 3.883714-3.125035 8.34547-4.967542 12.427886-2.90827 6.430708-6.232007 12.59046-9.555743 18.804403-7.930003 14.794242-17.684448 28.450466-25.921536 42.991815-4.714649 8.309342-10.422806 15.914197-15.227773 24.13322-6.719729 11.452441-12.807226 23.284222-20.032741 34.42958-2.366356 3.648885-4.371437 7.478408-6.268134 11.380186-2.962461 6.051369-2.095399 7.839684 1.499294 11.217612 5.81654 5.455264 6.810048 12.9698 8.05645 20.104996 1.083827 6.232007 0.722552 12.662715-1.174146 18.876658-1.282529 4.190799 0.252893 6.77392 4.552074 7.659046 5.039797 1.029636 10.097657 0.848998 14.902625-1.228338 4.407564-1.896698 8.977703-3.19729 13.656224-4.190798 2.836015-0.596105 5.599774-1.390912 8.219023-2.691505 0.903189-0.451595 1.842506-0.867062 2.817951-1.065763 5.942986-1.228338 11.867909-2.474739 17.847022-3.540503 8.309342-1.499294 16.383855 0.776743 24.494496 1.932826 3.05278 0.433531 4.497883 3.125035 3.919842 6.213943-0.487722 2.637313-1.679932 5.003669-4.10048 6.358453-5.81654 3.269546-10.693762 7.857748-16.401919 11.289867-3.161163 1.914762-6.304262 3.468247-10.007338 3.757268-3.106971 0.252893-5.780412 1.354784-8.164832 3.522439-3.630821 3.305673-5.057861 7.189388-4.371437 12.030482 0.903189 6.322326 2.420548 12.500141 4.479819 18.515383 1.589613 4.62433 4.786904 8.20096 8.471917 11.325995 1.968953 1.679932 4.425628 2.167655 6.900367 2.221846 7.803556 0.14451 15.570985 0.252893 23.374541-0.650297 13.493649-1.553486 27.077618-2.00508 40.661586-2.348292 5.383009-0.126447 8.598363 2.601185 10.946656 6.990686 0.722552 1.354784 0.939317 2.817951 0.180638 4.154671-2.817951 5.021733-5.491391 9.754445-11.560825 12.174993-10.314423 4.118544-20.664973 8.164832-31.033587 12.156929-7.514536 2.890206-15.137454 5.708157-22.308778 9.483489-2.167655 1.138019-4.497883 2.00508-6.828112 2.727632-6.448772 2.00508-11.380186 5.364945-14.812305 11.651143-3.106971 5.690093-4.786904 11.289867-4.606266 17.702512 0.252893 8.670618 0.216765 17.323172 2.312164 25.84928 0.975445 3.95597 2.420548 7.695174 4.082417 11.39825 1.0477 2.330229 2.637313 4.136607 4.841095 5.383009 4.046288 2.276037 8.182896 4.10048 12.897544 4.804967 8.688682 1.318657 17.250917 1.33672 25.795089-0.921253 4.534011-1.19221 8.688682-3.106971 12.373695-6.015241 3.540502-2.781823 5.256562-6.286198 4.985605-10.910528-0.270957-4.461756-0.054191-8.959639-0.054191-13.439458-0.054191-0.090319-0.036128-0.090319-0.036128-0.090319z m-189.380751 61.308496c-0.66836 6.051369-0.66836 11.54276-0.108382 17.016088 0.487722 4.660457 2.257973 6.322326 6.864239 6.900367 3.034716 0.397403 6.051369 0.018064 9.068021-0.307085 7.189388-0.776743 13.529777-3.992097 20.014677-6.791984 8.742873-3.775332 17.50381-7.586791 25.379622-13.042055 7.351962-5.093988 12.662715-12.120802 18.009596-19.165679 9.971211-13.132374 13.78267-28.053062 13.602033-44.25628-0.018064-2.348292-0.505786-4.588202-1.517359-6.719729-4.425628-9.284787-13.168501-11.813717-22.073948-14.035563-0.921253-0.234829-2.023144 0.036128-2.998589 0.252893-5.58171 1.228338-11.578888 1.0477-16.456111 4.732713-0.325148 0.252893-0.81287 0.325148-1.228337 0.433531-5.942986 1.589613-10.766017 5.401073-16.094835 8.200959-2.023144 1.065763-4.010161 2.38442-5.653966 3.974034-6.10556 5.942986-11.831781 12.265312-17.467682 18.659892-1.354784 1.535422-2.257973 3.341801-2.998589 5.238499-4.3895 11.452441-7.00875 23.211967-6.412645 35.567598 0.126447 1.318657 0.072255 2.619249 0.072255 3.341801z" p-id="2216"></path><path d="M774.051369 597.31527c0.270957-9.718318 0.993508-18.804403 0.921253-27.926616-0.054191-5.491391 0.415467-10.964719 0.776743-16.438047 0.885126-13.674287 1.589613-27.366638 0.632233-41.095117-0.307084-4.461756-0.14451-8.959639-0.144511-13.439458-0.018064-42.91956-0.090319-85.839119 0-128.758679 0.018064-4.425628-1.643805-7.370025-5.274626-9.646063-4.786904-2.998589-9.971211-5.238498-14.992944-7.767429-5.274626-2.655377-10.567316-5.346881-15.896133-7.893875-1.878634-0.903189-3.793395-1.679932-5.81654-0.903189-4.841095 1.878634-9.935083 1.661868-14.956816 2.113463-2.745696 0.234829-5.563647 0.37934-8.020322 1.661868-4.534011 2.348292-9.375106 2.781823-14.306519 2.836015-3.793395 0.054191-7.351962 0.686424-10.910528 2.257973-3.974033 1.752187-8.399661 2.077336-12.734971 2.23991-4.642393 0.180638-9.176404 0.704488-13.493649 2.727632-2.76376 1.300593-5.852667 1.535422-8.905447 1.661868-6.10556 0.234829-12.06661 1.119955-17.702512 3.703077-2.402484 1.101891-5.039797 1.174146-7.659046 1.228337-5.075924 0.090319-10.115721 0.415467-14.938753 2.149591-8.544172 3.05278-17.684448 2.619249-26.445385 4.407564-1.427039 0.289021-2.90827 0.054191-4.281118-0.397403-3.161163-1.065763-6.394581-1.752187-9.646063-2.438611-6.539091-1.354784-8.815128-7.135196-7.460344-13.421395 0.487722-2.257973 2.402484-3.179227 4.47982-3.57663 1.408975-0.270957 2.872142-0.270957 4.317245-0.325148 2.348292-0.090319 4.642393-0.487722 6.611346-1.806379 2.745696-1.806379 5.762348-2.565058 8.977703-2.836014 3.468247-0.307084 6.828112-1.065763 10.007338-2.619249 3.19729-1.57155 6.719729-1.589613 10.187976-1.697996 3.504375-0.126447 6.828112-0.632233 9.935084-2.528931 2.890206-1.752187 6.34039-1.914762 9.646062-2.14959 3.359865-0.234829 6.557155-0.848998 9.53768-2.546995 2.420548-1.372848 5.166243-1.842506 7.911939-2.095399 2.456675-0.234829 4.967542-0.361276 7.225515-1.354784 8.020322-3.504375 16.83545-3.992097 25.054474-6.810048 2.854078-0.975445 5.888795-1.445103 8.959639-1.481231 1.752187-0.018064 3.414056-0.52385 5.039796-1.210273 1.19221-0.505786 2.366356-1.228338 3.630822-1.408976 9.989275-1.553486 19.328253-5.834603 29.407846-6.882303 3.05278-0.307084 5.979114-0.975445 8.72481-2.366356 2.510866-1.264465 5.166243-1.770251 7.96613-1.770251 8.092577 0.018064 16.185154 0.036128 24.277731 0.018063 3.125035 0 5.744285 1.0477 8.48998 2.61925 13.168501 7.550663 22.959074 18.605701 32.388372 30.130398 3.287609 4.010161 7.099069 7.586791 10.278295 11.723398 1.950889 2.52893 3.106971 5.130116 2.980525 8.327406-0.37934 9.808637-0.487722 19.653401-1.156083 29.443974-0.325148 4.859159-1.932825 9.555744-2.38442 14.487158-1.318657 14.685859-2.113463 29.371719-2.059271 44.129833 0.108383 29.769122 0.162574 59.538244-0.072256 89.307367-0.072255 9.519616-0.885126 19.039232-1.842506 28.522721-0.722552 7.243579 0.126447 14.432966-0.252893 21.658481-0.37934 7.081005-0.686424 14.107818-2.095399 21.098504-1.445103 7.099069-1.101891 14.378775-1.57155 21.586227-0.37934 5.762348-0.072255 11.596952-0.686424 17.323172-1.445103 13.349139-1.029636 26.915044-3.919842 40.065481-2.619249 11.867909-3.522439 23.970646-5.635902 35.910811-1.86057 10.476997-3.72114 21.026249-4.967541 31.629692-0.361276 3.016653-0.722552 6.051369-1.463167 8.977702-1.679932 6.466836-2.510866 13.042055-3.106972 19.671465-0.14451 1.57155-0.270957 3.215354-0.794806 4.678521-3.269546 9.320914-4.407564 19.111487-6.737793 28.631104-2.00508 8.255151-3.666949 16.618685-6.177815 24.765453-1.734124 5.635902-2.836015 11.452441-4.985606 17.016088-1.408975 3.630821-2.438611 7.388089-4.208862 10.892464-0.578041 1.156082-1.174146 2.38442-1.336721 3.648885-0.650296 5.328817-3.919842 9.591871-5.780412 14.432966-0.198702 0.505786-0.541914 1.210274-0.975444 1.354785-2.095399 0.66836-4.281118 0.307084-6.448773 0.325148-1.57155 0.018064-2.23991-0.993508-2.962461-2.131527-0.451595-0.704488-1.119955-1.33672-1.788315-1.86057-7.442281-5.798476-13.294948-13.240756-20.195314-19.59921-8.779001-8.092577-15.49873-17.88315-21.369461-28.161445-3.57663-6.232007-6.430708-12.897544-8.941575-19.671465-1.119955-3.016653-1.57155-6.159752-1.878634-9.320915-0.451595-4.534011 1.083827-6.322326 5.617838-5.942986 8.760937 0.704488 17.576065 1.029636 26.011854 4.10048 6.882303 2.510866 10.567316 0.939317 13.836862-5.491391 2.926334-5.798476 5.58171-11.723398 8.48998-17.539938 2.203782-4.425628 3.504375-9.212532 4.841095-13.891053 2.077336-7.333898 4.24499-14.667796 6.087496-22.110076 2.998589-12.102738 3.504375-24.602879 6.539092-36.651426 0.289021-1.119955 0.397403-2.276037 0.469658-3.432119 1.19221-18.623765 4.443692-36.994637 6.195879-55.546148 1.300593-13.800734 2.601185-27.619531 2.294101-41.528648-0.180638-5.256562 0.180638-10.440869 0.632233-14.992943z" p-id="2217"></path></svg>